
<svg xmlns="http://www.w3.org/2000/svg" viewBox="0 0 787.84 926.32">
  <path
    d="M71.05 399.41c-.78-8.53-2.5-16.21-4.49-22.74-4.75 8.17-11.2 21.12-13.02 33.93-.15 1.05-.29 2.07-.43 3.08l18.57-6.41c-.17-2.53-.38-5.14-.63-7.85ZM214.18 338.89c-6.36-1.71-14.64 4.71-20.97 20.76-6.33 16.05-15.67 36.95-3.48 40.57s19.81-13.63 24.44-26.99c4.64-13.36 10.34-31.57 0-34.35ZM247.17 454.93c-.44-3.68-13.94-2.91-22.24-2.08-.19 3.96-.58 8.34-1.26 12.96 3.45.72 8.18 1.54 12.86 1.79 8.87.48 11.27-7.35 10.63-12.67Z"
    style="fill:#d9e021" />
  <path
    d="M781.6 315.16C763.38 170.78 693.94 67.75 552.4 22.81 380.56-31.75 189.83 10.64 82.13 160.11-23.6 306.84-29.21 493.76 76.73 642.06c14.81 20.72 33.42 45.86 50.03 64.93 15.01 17.24 32.55 19.18 53.98 12.76l-8.52 59.37c-19.73 3.8-29.22 13.81-27.76 34.4.36 5.11 2.52 10.06 3.03 14.71 1.83 16.76-20.74 30.33-6.07 49.28 18.68 24.13 76.82 38.97 106.19 43.48 36.6 5.62 82.9 7.79 119.32 1.54 46.38-7.96 97.61-34.07 134.67-62.83 42.65-33.1 65.04-58.55 57.06-116.32-2.4-17.37-8.62-33.29-13.77-49.88 38.88 26.14 87.63 25.6 127.8 2.45 46.39-26.74 71.18-76.56 89.55-124.94 29.65-78.07 29.73-173.77 19.37-255.86ZM51.3 273.57c.07-.83 4-13.02 4.46-13.88.72-1.34 3.57-1.6 4.86-1.23 8.21 7.8-2.02 20.07-8.7 25.34.75-3.16-.85-7.51-.61-10.24ZM37.16 400.91c7.38-29.31 19.39-47.26 19.39-47.26l20.43-12.73s5.56 13.68 12.3 36.86c6.74 23.18 6.59 64.2 6.59 64.2l-23.92 3.08s.62-7.26.47-19.38l-21.8 8.4c-.75 7.22-1.03 11.39-1.03 11.39l-16.94 6.24s-2.88-21.48 4.49-50.79Zm255.43-37.57c5.05-15.26 14.75-67.06 14.75-67.06l32.32 3.72s-2.59 48.88-6.85 73.24c-4.27 24.36-4.72 54.84-4.72 54.84l-23.15 2.31s8.88-56.7 10.74-74.25c.69-6.56 1.1-16.57 1.33-26.55-3.36 12.65-7.04 27.03-9.66 38.82-6.2 27.82-20.53 52.72-20.53 52.72h-15.43s2.32-46.21 3.24-64.38c.16-3.26.1-7.1-.12-11.22-4.82 26.81-15.08 74.03-15.08 74.03l-23.05 1.35s3.17-16.33 6.06-37.48 12.33-79.87 12.33-79.87l36.74-2.06s.79 39.09.22 64.51c.3-.91.6-1.81.89-2.69Zm126.95 44.26c10 0 15-21 15-21l21.51 5.57s-4.51 11.43-7.03 24.46c-2.52 13.02-16.48 15.98-40.88 18.82-24.4 2.84-29.6-37.84-23.62-65.77 5.99-27.93 26.01-43.07 53.88-40.43s24.62 38.65 24.62 38.65l-24.62 2.33c-.13-9.38-4.87-16.62-10.87-17.62s-11 5-16.94 20.92c-5.94 15.92-1.06 34.08 8.94 34.08Zm-46.83-27.98c-1.17 23.98 3.21 56.95 3.21 56.95s-5.4.97-13.89 0-12.63-.09-12.63-.09-6.12-27.59-2.99-56.23c3.13-28.64 15.62-70.21 15.62-70.21l26.44 6.69s-14.59 38.92-15.76 62.9Zm-9.17 78.92s30 5.06 43 8.06c7.52 1.74 13.27 2.51 16.79 2.86l59.21-72.86 4.48 40.75 33.92-22.76-47.83 66.8-6.57-38.78-42.45 26.93c2.08.19 3.19.21 3.19.21l-4.88 24.01s-18.03-3.4-28.95-5.28c-4.33-.74-8.03-1.66-10.93-2.5-1.41 6.11-3.04 12.88-4.78 19.54l37.52 5.53-6.96 26.15-38.68-5.07c-2.37 6.64-4.71 13.69-6.81 20.27 2.47 1.38 6.07 3.01 11.03 4.44 11.31 3.25 29.57 4.76 29.57 4.76l-5.13 25.33s-6.75.66-22.75-2.21c-8.5-1.53-22.64-5.51-28-8.12-5.36-2.61-18.29-11.17-18.29-11.17s12.29-22.83 15.79-35.09 18.5-71.8 18.5-71.8Zm113.83 74.52c4.17 13.54 13.91 38.51 13.91 38.51s-5.49 5.06-9.11 7.54-10.5 3.72-10.5 3.72-6.02-10.7-12.17-24.05c-9.3 16.69-16.63 33.3-16.63 33.3l-31.9-2.4s15.57-25.09 28.93-46.81c2.22-3.61 5.26-7.79 8.79-12.25-.15-.54-.3-1.09-.44-1.62-5.72-22.4-9.85-53.84-9.85-53.84l27.43 10.61s2 9.19 4.51 19.9c13.66-14.76 26.18-27.08 26.18-27.08l34.44 1.96s-34.44 34.04-50.54 48.44c-1.08.96-2.18 2.08-3.29 3.33.07.25.15.5.22.74Zm-279.64-93.74 16.26-3.57s20.53-5.53 35.04-5.34c14.51.19 32.09 13.86 31.3 26.03-.79 12.16-6.02 26.23-19.79 30.16-15.03 4.29-32.61 3.47-41.4 2.65-4.31 20.31-9.83 43.81-9.83 43.81l-22.43-2.72s3.65-18.74 9.46-42.99 1.38-48.03 1.38-48.03Zm87.81 44.65c7.01-14.63 14.78-38.91 14.78-38.91l22.76 4.41s-4.54 18.13-9.85 32.2c-5.31 14.08-11.69 26.92-11.69 26.92s-3 0 3 6 24.13 18.02 24.13 18.02l-10.99 25.83s-4.57-5.53-14.83-13.55c-18.31-14.3-30.28-35.41-30.28-35.41s5.97-10.89 12.98-25.52Zm-50.56-108.28c-6.44 22.91-19.67 60.48-50.06 53.2-30.38-7.28-29.27-34.43-15.83-62.36s21.66-57.37 58.05-53.15c21.49 2.49 14.28 39.4 7.84 62.31ZM138.35 497.9c2.19 18.7 5.24 26.24 13.22 24.97s8.99-11.9 7.48-29.08c-1.51-17.18-6.08-45.97-6.08-45.97l22.21-5.53s13.46 48.37 5.41 68.35-11.5 32-24.77 34.52c-18.28 3.46-29.75-21.38-37.01-46.46-7.27-25.08-3.05-43.79-3.05-43.79l23.33 1.74s-2.91 22.56-.73 41.27Zm37.4-158.48s-2.11 3.02-26.24 5.59c-.29 12.27-1.27 42.36-4.22 58.72-3.76 20.88-6.6 35.6-6.6 35.6l-26.62-.44s6.14-29.48 6.8-48.38c.46-13.13 1.49-29.32 2.07-38-14.16 5.98-24.44 13.29-24.44 13.29l-5.95-26.35s16.98-12.84 41.24-19.09 47.48-6.97 47.48-6.97l-3.53 26.04ZM97.66 533.89C89.78 520.18 74.54 519.6 64 517.81c-10.54-1.78-28.98-8.89-23.46-33.22s20-24 41.28-24.72 24.08 19.47 24.08 19.47l-18.53 7.93s-4.83-9.68-14.83-8.68-11 4-10 10c1.36 8.13 9 8 21 11 8.73 2.18 19 5 26.81 14.95 7.81 9.95 16.19 28.05 5.93 45.24-10.26 17.2-22.74 11.8-34.11 6.4-11.37-5.41-24.92-33.13-24.92-33.13l16.51-5.33s3.78 5.87 6.97 12.87c3.19 7.01 13.81 9.99 17.13 9.47 3.32-.52 7.68-2.48-.2-16.19Zm71.33 158.67c-8.3 2.52-19.91 2.95-26.45-3.67-18.18-26.95-39.26-52.17-57.63-78.93-8.12-11.82-15.63-24.46-21.42-37.59 15.29 18.29 34.64 31.69 59.02 33.94 5.44.5 10.56-1.78 14.66 2.31 8.08 8.07 29.67 40.95 33.37 51.49 3.66 10.42 1.31 22.09-1.55 32.44Zm272.25 182.4c-76.06 34.4-164.97 46.37-244.71 16.85-9.42-3.49-37.54-15.87-41.93-24.42-3.55-6.91 6.11-25.81 6.84-35.4.67-8.85-1.64-24.45.37-32.04.96-3.64 5-7.05 8.17-8.8 14.75-8.13 58.01-6.46 75.98-5.86 42.56 1.41 89.26 9.42 124.8 34.12 8.43 5.86 15.9 13.59 25.46 17.74 45.47 19.72 44.49-41.98 49.37-69.72 3.18-18.06 17.19-65.19 12.47-80.09-3.63-11.47-11.97-12.54-22.6-14.43-58.56-10.44-122.58-.81-179.91 12.48-15.82 3.67-37.8 11.74-52.92 13.43-10.32 1.16-11.96-1.14-12.68-11.08-.56-7.75.82-14.96-1.1-22.82-2.17-8.86-19.03-31.1-25.24-39.57-5.36-7.31-11.23-14.24-16.83-21.35 8.41-1.58 17.99-4.69 25.47-8.87 14.49-8.09 39.26-39.09 44.76-54.76 3.9-11.09 3.89-35.73 22.56-31.87 3.74.77 13.76 8.57 15.99 11.78 1.96 2.82 2.07 5.94 3.55 8.79 7.3 14.02 19.67 29.39 30.73 40.66 8.32 8.48 20.56 17.46 30.15 24.99 23.91 18.78 49.73 21.42 79.41 22.43 28.28.95 57.45.41 83.73-10.84 3.6 14 10.15 27.02 17.13 39.59 2.21 3.98 6.05 8.28 7.96 12.1 10.04 20 22.29 64.53 23.55 86.78 4.07 71.52-30.04 102.81-90.54 130.18ZM187.67 717.42h10.03v20.06l-10.79 2.31c-.54-7.5 1.23-14.86.76-22.38Zm9.27 27.78v30.86l-12.34.77c.78-9.67 1.2-19.49 1.62-29.24l10.72-2.39Zm8.57-2.23 36.94-5.49v38.58h-39.34l2.4-33.09Zm-.85-8.57 1.55-17.73c11.6-.5 22.27-5.65 33.16-8.5l3.09 19.29-37.8 6.95Zm47.06-6.18c-.52-8.24-2.95-16.56-2.75-24.72l41.31-14.63 3.86 38.59-42.43.76Zm41.65 7.72-1.54 39.74-1.27 3.53-40.4-3.15 3.09-40.12h40.12Zm131.49 42.4c-1.91 10.49-1.09 21.55-1.9 32.05-.57 7.42-2.16 17.02-11.88 14.99-14.25-4.34-25.19-15.45-37.37-23.57l19.55-44.19c11.34 5.55 22.6 11.67 31.6 20.71Zm-25.71-31.33c1.79-13.48 5.77-26.64 7.52-40.11 1.2-9.24 1.58-18.76 1.65-28.06 1.12-1.11 26.99 3.37 30.51 4.6 11.49 4.02 12.54 11.38 10.01 22.41-4.25 18.52-15.35 36.88-19.69 55.54L399.16 747Zm-8.2-3.34-32.02-8.87 2.33-54.41 37.03-1.55c.44 21.82-.46 44-7.35 64.83Zm-6.55 11.57-17.75 43.2-27.76-9.27 16.99-43.96 28.53 10.03Zm-36.26-22.38-43.93-4.67c-2.42-14.02-3.47-28.16-3.88-42.39l48.6-4.64c2.41 17.2 2.97 34.65-.78 51.71Zm-45.52 3.85 43.21 4.64-16.16 45.19-30.9-5.85 3.86-43.98Zm354.63-55.41c-70.3 29.84-135.92-20.01-155.35-86.96 25.32-20.13 40.81-50.6 46.83-82.15l7.34 31.61 3.46 23.93 45.5-17.75c7.22 31.05 39.5 49.54 66.72 26.98 22.05-18.27 28.09-53.91 15.21-79.21-11.65-22.87-38.65-32.54-59.93-15.69-1.12-.73-1.07-1.48-1.19-2.65-3.83-35.14 11.69-102.85 59.48-93.44 11.6 2.28 18.2 8.87 25.82 17.39 70.19 78.46 45.83 235.59-53.88 277.91Zm-27.28-169.74c-.84-4.6-2.43-11.6-2.59-16.01-.05-1.36-.11-1.92.82-3.04 1.62-1.95 14.59-7.67 17.41-8.04 23.88-3.12 40.39 26.66 38.11 47.38-4.74 43.13-55.38 60.18-70.96 14.29l23.14-8.51c-1.78-8.74-4.32-17.28-5.92-26.07Zm131.67-11.72-7.31-39.36c-5.31-21.75-15.71-44.41-30.5-61.31-22.24-25.41-57.87-32.05-84.47-8.91-30.26 26.31-23 72.81-21.16 108.39.53 10.27.25 20.87.61 31.15-6.07 2.04-47.26 18.6-49.96 16.27a707.61 707.61 0 0 0-9.11-30.62c-4.8-14.88-8.29-23.4-10.24-39.14-2.93-23.6-8.49-46.41-18.37-68.04-2.34-5.12-7.54-12.59-9.02-17.21-2.99-9.35-3-12.43-9-21.09-10.19-14.69-19.47-18.17-32.97-27.98-32.89-23.91-55.23-37.44-95.56-47.94-105.41-27.45-231.46-17.55-324.42 41.59-8.09 5.14-18.64 16.37-26.39 19.13-2.12.75.39-4.17-.25-4.88l7.59-38.32v10.8l11.57-2.7v-29.71c8.76-.97 16.75 4.1 20.84 11.57l9.21-6.63c-3.81-6.59-9.54-10.82-15.99-14.55 1.92-4.82 4.83-9.01 5.64-14.27 1.13-7.29.4-23.66-9.68-23.19l.07-1.07c20.57-47.69 46.89-96.71 87.5-130.08 111.49-91.57 257.4-113.8 393.46-65.59C670.04 90.9 739.15 182.57 756.92 314.39c8.29 61.52 7.43 123.61 4.73 185.45Z"
    style="fill:#d9e021" />
  <path d="M65.78 376.39c-1.74-.32-1.23.08-1.71.98-1.67 3.07-3.71 9.83-5.02 13.48-2.46 6.86-4.79 13.89-6.36 21.02l19.29-4.63c-.96-10.49-2.9-20.85-6.19-30.86Z" style="fill:#fff"/>
  <path
    d="m443.04 251.4 6.96 36.65c.03 1.02-.58 1.32-1.26 1.84-1 .76-10.47 5.35-11.5 5.48-1.71.22-.89-.25-1.16-1.13-4.7-15.24-6.65-32.63-11.39-48.03l-16.8-16.39-2.04 1.74-16.05 36.03c-2.46 1.71-11.65-11.06-13.8-12.84l40.04-65.52c1.58-.8 24.07 8.91 27.29 10.56 9.22 4.72 23.66 14.82 25.1 25.82 2.36 17.93-6.34 30.34-25.39 25.79Zm-31.63-29.33c9.17 3.1 23.99 16.58 33.13 17.41 4.79.44 10.86-4.97 11.47-9.47 1.34-9.96-24.57-24.57-33.35-25.71l-11.25 17.78ZM320.76 183.5l25.06-22.37 6.62 22.32 24.24 22.82-23.13-3.49-7.73 40.9-18.99-20.72-31.14 18.4 16.26-34.99-32.47-22.87h41.28zM492.98 243.09c50.13-8.46 40.29 74.92-1.14 81.42-21.35 3.35-29.6-24.27-27.97-41.09 1.35-13.91 13.97-37.78 29.11-40.33Zm-.01 15.43c-13.1 2.75-16.88 27.73-14.1 38.45 2.18 8.4 11.34 13.25 19.48 9.37 5.02-2.4 11.16-11.15 12.95-16.37 4.52-13.18-.31-35.22-18.33-31.44ZM231.65 172.7l-3.08 32.4 42.04-26.99c.95.07 4.77 13.19 3.87 14.63l-25.86 15.46 19.7 48.51c.22 2.31-6.84 8.66-8.52 10.88l-21.59-53.99-13.11 9.25-4.6 31.66-8.14.74 4.6-76.64 14.68-5.92ZM172.06 183.7c11.38-1.63 21.8.39 25.54 12.43l-9.86 7.09c-5.99-2.9-7.46-4.83-14.25-1.89-13.2 5.72-11.52 24.63-6.24 35.39 6.31 12.87 13.91 1.08 21.48-3.79l8.63 9.9c-6.34 16.29-28.86 25.29-41.29 9.7-13.71-17.19-10.07-65.1 16-68.84ZM584.21 400.31l-19.15 2.96-19.49-34.87c12.1-10.55 24.13-21.36 33.87-34.19 5.53-7.29 9.9-15.43 15.56-22.62l3.7 20.25-27.34 41.87 12.85 26.61ZM556.06 276.09c2.06-.52 6.28 11.04 6.92 13.12l-28.71 39.85c.89 10.51 8.68 18.16 12.08 27.54l-12.62 7.44-23.48-34.18 45.81-53.77ZM114.96 206.05c7.72-1.24 12.38 4.44 14.99 10.87 7.26 17.81.42 41.72-14.43 53.75-9.23 7.47-18.25 9.58-24.08-2.89-8.65-18.5.25-57.99 23.52-61.73Zm-2.32 14.62c-3.5.72-7.91 6.76-9.47 9.87-3.64 7.28-8.63 30.86 3.46 32.09 11.86 1.21 19.11-24.16 17.6-33.04-.86-5.08-6.34-10.01-11.59-8.93ZM252.47 539.19c2.78 12.92 8.98 24.65 17.36 34.73 5.55 6.69 19.19 18.1 20.39 26.68 2.52 17.98-11.38 20.82-25.78 22.68-17.2 2.22-37.36 1.91-54.63 1.26-7.46-.28-11.43-4.27-12.03-11.77-1.03-12.91 19.57-38.85 25.53-52.23 1.09-2.44 6.32-17.95 7.25-18.24 2.8-.87 3.96 3.85 4.12 5.87.79 10.22-3.49 21.68-7.51 30.89-3.1 7.1-12.08 20.45-13.66 26.46-.48 1.82-.77 3.62.04 5.42 2.22 4.91 23.34 4.9 28.52 4.63 5.99-.31 21.53-1.74 26.8-3.28s10.06-7.57 7.33-13.1c-11.01-13.18-29.77-38.69-27.61-56.57.3-2.49 1.45-3.15 3.89-3.42ZM65.78 376.39c3.29 10.01 5.23 20.36 6.19 30.86l-19.29 4.63c1.57-7.13 3.9-14.16 6.36-21.02 1.31-3.66 3.36-10.42 5.02-13.48.49-.9-.02-1.3 1.71-.98Z"
    style="fill:#d9e021" />
</svg>